<?xml version="1.0" encoding="UTF-8" standalone="no"?>
<!-- Generator: Adobe Illustrator 18.0.0, SVG Export Plug-In . SVG Version: 6.00 Build 0)  -->

<svg
   xmlns:dc="http://purl.org/dc/elements/1.1/"
   xmlns:cc="http://creativecommons.org/ns#"
   xmlns:rdf="http://www.w3.org/1999/02/22-rdf-syntax-ns#"
   xmlns:svg="http://www.w3.org/2000/svg"
   xmlns="http://www.w3.org/2000/svg"
   xmlns:sodipodi="http://sodipodi.sourceforge.net/DTD/sodipodi-0.dtd"
   xmlns:inkscape="http://www.inkscape.org/namespaces/inkscape"
   version="1.1"
   id="Layer_1"
   x="0px"
   y="0px"
   viewBox="0 0 612 792"
   enable-background="new 0 0 612 792"
   xml:space="preserve"
   inkscape:version="0.48.5 r10040"
   width="100%"
   height="100%"
   sodipodi:docname="BJP.svg"><metadata
   id="metadata3113"><rdf:RDF><cc:Work
       rdf:about=""><dc:format>image/svg+xml</dc:format><dc:type
         rdf:resource="http://purl.org/dc/dcmitype/StillImage" /><dc:title></dc:title></cc:Work></rdf:RDF></metadata><defs
   id="defs3111" /><sodipodi:namedview
   pagecolor="#ffffff"
   bordercolor="#666666"
   borderopacity="1"
   objecttolerance="10"
   gridtolerance="10"
   guidetolerance="10"
   inkscape:pageopacity="0"
   inkscape:pageshadow="2"
   inkscape:window-width="1366"
   inkscape:window-height="705"
   id="namedview3109"
   showgrid="false"
   inkscape:zoom="0.2979798"
   inkscape:cx="306"
   inkscape:cy="396"
   inkscape:window-x="-8"
   inkscape:window-y="-8"
   inkscape:window-maximized="1"
   inkscape:current-layer="g3081" />
<g
   id="g3081"
   transform="matrix(4.3516101,0,0,4.2122999,-831.1993,-1463.8451)">
	<polygon
   clip-rule="evenodd"
   points="272.8,342.1 272.9,342 273.1,341.9 273.3,341.8 273.5,341.7 273.7,341.7 273.9,341.6 274.1,341.5 274.3,341.5 274.6,341.4 274.8,341.4 275.1,341.3 275.3,341.3 275.6,341.3 275.9,341.2 276.1,341.2 276.6,341.2 277,341.3 277.4,341.3 277.8,341.3 278.2,341.4 278.7,341.4 279.1,341.5 279.5,341.5 279.9,341.6 280.3,341.7 280.7,341.8 281.2,341.9 281.6,342 282,342.1 282.4,342.2 282.8,342.3 283.2,342.5 283.6,342.6 284,342.8 284.4,343 284.8,343.1 285.2,343.3 285.6,343.5 286,343.7 286.4,343.9 286.8,344.1 287.2,344.3 287.6,344.6 288,344.8 288.4,345 288.8,345.3 289.2,345.6 289.5,345.8 289.9,346.1 290.3,346.4 290.7,346.7 291,346.9 291.4,347.2 291.8,347.5 292.1,347.9 292.5,348.2 292.8,348.5 293.2,348.8 293.5,349.2 293.8,349.5 294.2,349.8 294.5,350.2 294.8,350.6 295.1,350.9 295.4,351.3 295.7,351.7 296,352 296.3,352.4 296.6,352.8 296.6,352.8 296.8,352.5 297.1,352 297.4,351.5 297.6,351 297.9,350.5 298.2,350 298.6,349.4 298.9,348.9 299.2,348.3 299.5,347.8 299.9,347.2 300.2,346.7 300.6,346.1 300.9,345.5 301.3,344.9 301.7,344.4 302.1,343.8 302.5,343.2 302.9,342.5 303.3,341.9 303.7,341.3 304.1,340.7 306.6,337 309.1,340.2 309.4,340.5 309.6,340.8 309.9,341.2 310.2,341.6 310.4,341.9 310.7,342.3 310.9,342.7 311.2,343.1 311.5,343.5 311.7,343.9 312,344.3 312.2,344.8 312.5,345.2 312.8,345.7 313,346.1 313.3,346.6 313.5,347.1 313.8,347.6 314.1,348.1 314.3,348.6 314.6,349.1 314.9,349.6 315.2,350.2 315.4,350.7 315.4,350.7 315.6,350.6 316.1,350 316.6,349.4 317.2,348.8 317.7,348.3 318.3,347.7 318.9,347.2 319.4,346.7 320,346.2 320.6,345.8 321.2,345.3 321.9,344.9 322.5,344.4 323.1,344 323.8,343.7 324.4,343.3 325,342.9 325.7,342.6 326.4,342.3 327,342 327.7,341.8 328.3,341.6 329,341.3 329.7,341.1 330.4,341 331.1,340.8 332,340.6 332.5,340.6 332.8,340.7 333.1,340.7 333.4,340.7 333.7,340.7 334,340.8 334.3,340.8 334.5,340.9 334.8,340.9 335,341 335.3,341 335.5,341.1 335.7,341.2 336,341.2 336.2,341.3 339.7,342.3 337.9,345.7 337.8,346 337.6,346.3 337.5,346.5 337.3,346.8 337.2,347.1 337.1,347.4 337,347.7 336.8,347.9 336.7,348.2 336.6,348.5 336.5,348.8 336.4,349 336.3,349.3 336.2,349.6 336.2,349.8 336.1,350.1 336,350.4 335.9,350.6 335.9,350.9 335.8,351 336.1,350.7 336.5,350.4 336.8,350.1 337.2,349.7 337.5,349.4 337.8,349.1 338.2,348.8 338.6,348.5 338.9,348.2 339.3,347.9 339.7,347.7 340,347.4 340.4,347.1 340.8,346.8 341.2,346.6 341.6,346.3 342,346.1 342.4,345.9 342.8,345.6 343.2,345.4 343.6,345.2 344,345 344.4,344.8 344.8,344.6 345.2,344.4 345.7,344.2 346.1,344.1 346.5,343.9 346.9,343.8 347.3,343.6 347.8,343.5 348.2,343.4 348.6,343.2 349.1,343.1 349.5,343 349.9,342.9 350.3,342.9 350.8,342.8 351.2,342.7 351.7,342.6 352.1,342.6 352.5,342.5 353,342.5 353.4,342.5 353.9,342.5 354.3,342.4 354.8,342.4 355.2,342.4 355.5,342.5 355.9,342.5 356.3,342.5 356.7,342.6 357.1,342.7 357.4,342.7 357.8,342.8 358.2,343 358.6,343.1 358.9,343.2 359.3,343.4 359.6,343.6 359.9,343.8 360.3,344.1 362.9,346.2 360.4,348.7 360.1,349.1 359.8,349.4 359.5,349.8 359.2,350.2 358.9,350.5 358.6,350.9 358.4,351.3 358.1,351.7 357.9,352.1 357.6,352.5 357.4,352.9 357.2,353.2 357,353.7 356.8,354.1 356.6,354.5 356.4,354.9 356.3,355.3 356.1,355.7 356,356.1 355.8,356.5 355.7,356.9 355.6,357.3 355.5,357.7 355.4,358.1 355.4,358.5 355.3,358.9 355.3,359.3 355.2,359.6 355.2,360 355.2,360.4 355.2,360.8 355.2,361.1 355.2,361.3 355.2,361.6 355.2,361.9 355.2,362.3 355.2,362.6 355.2,363 355.2,363.3 355.3,363.7 355.3,364.1 355.3,364.5 355.3,365 355.4,365.4 355.4,365.9 355.4,366.4 355.5,366.9 355.5,367.4 355.5,367.9 355.6,368.4 355.6,368.9 355.6,369.3 355.6,369.8 355.7,370.2 355.7,370.6 355.7,371 355.7,371.4 355.7,371.7 355.7,372.1 355.7,372.4 355.8,372.8 355.8,373.1 355.8,373.4 355.8,373.8 355.7,374.3 355.7,374.8 355.7,375.2 355.7,375.7 355.6,376.2 355.6,376.6 355.6,377.1 355.5,377.5 355.5,378 355.4,378.4 355.3,378.9 355.2,379.3 355.2,379.8 355.1,380.2 355,380.7 354.9,381.1 354.8,381.6 354.6,382 354.5,382.5 354.4,382.9 354.3,383.3 354.1,383.8 354,384.2 353.8,384.7 353.7,385.1 353.5,385.5 353.3,386 353.2,386.4 353,386.8 352.8,387.3 352.6,387.7 352.4,388.1 352.2,388.5 352,388.9 351.8,389.4 351.6,389.8 351.3,390.2 351.1,390.6 350.9,391 350.6,391.4 350.4,391.8 350.2,392.2 349.9,392.5 349.6,392.9 349.4,393.3 349.1,393.7 348.8,394 348.6,394.4 348.3,394.8 348,395.1 347.7,395.5 347.4,395.8 347.1,396.2 346.8,396.5 346.5,396.9 346.2,397.2 346.1,397.3 346.2,397.3 346.5,397.6 346.7,397.9 347,398.2 347.2,398.5 347.5,398.9 347.7,399.2 347.9,399.5 348.2,399.9 348.4,400.2 348.6,400.5 348.8,400.9 348.9,401.2 349.1,401.6 349.2,402 349.4,402.3 349.5,402.7 349.6,403.1 349.7,403.4 349.8,403.8 349.9,404.2 349.9,404.6 349.9,405 350,405.3 350,405.8 350,406.2 349.9,406.6 349.8,407 349.8,407.3 349.7,407.7 349.5,408.2 349.4,408.6 348.1,412.6 344.8,410.2 344.5,410 344.3,409.8 344.1,409.7 343.9,409.6 343.7,409.4 343.5,409.3 343.3,409.3 343.2,409.2 343.1,409.1 343,409.1 343,409.1 342.8,409.1 342.7,409.1 342.6,409.2 342.4,409.2 342.3,409.2 342.1,409.3 342,409.3 341.8,409.3 341.7,409.4 341.5,409.5 341.3,409.5 341.1,409.6 340.9,409.7 340.7,409.8 340.5,409.9 340.4,410 340.2,410.1 340,410.2 339.8,410.3 339.6,410.4 339.4,410.5 339.2,410.7 339,410.8 338.8,410.9 338.6,411.1 338.4,411.3 338.1,411.4 337.9,411.6 337.7,411.8 337.5,412 337.1,412.3 336.8,412.6 336.5,412.9 336.1,413.1 335.8,413.4 335.4,413.6 335,413.9 334.7,414.1 334.3,414.3 333.9,414.5 333.6,414.7 333.2,414.9 332.8,415.1 332.4,415.3 332,415.5 331.6,415.6 331.2,415.8 330.9,415.9 330.5,416.1 330.1,416.2 329.7,416.3 329.3,416.4 328.9,416.5 328.5,416.6 328.1,416.7 327.7,416.7 327.3,416.8 326.9,416.8 326.5,416.9 326.1,416.9 325.7,416.9 325.3,416.9 325,416.9 324.7,416.9 324.4,416.9 324.1,416.9 323.8,416.9 323.6,416.9 323.3,416.8 323,416.8 322.8,416.8 322.5,416.8 322.2,416.7 322,416.7 321.7,416.7 321.5,416.6 321.3,416.6 321,416.6 320.5,416.5 320.1,416.3 319.6,416.2 319.2,416.1 318.8,415.9 318.6,415.8 318.3,415.9 318,416 317.7,416.2 317.3,416.3 317,416.4 316.7,416.6 316.5,416.7 316.2,416.9 315.9,417.1 315.7,417.3 315.4,417.5 315.2,417.7 314.9,418 314.7,418.2 314.5,418.5 314.3,418.7 314.1,419 313.9,419.2 313.8,419.5 313.6,419.7 313.5,420 313.4,420.3 313.3,420.5 313.2,420.8 313.1,421 313.1,421.3 313,421.6 313,421.9 313,422.2 313,422.5 313,423 313,423.5 313,424 313,424.5 313,424.9 312.9,425.4 312.9,425.9 312.9,426.3 312.9,426.8 312.9,427.3 312.9,427.7 312.8,428.2 312.8,428.6 312.8,429 312.7,429.5 312.7,429.9 312.7,430.3 312.6,430.8 312.6,431.2 312.6,431.6 312.5,432 312.5,432.4 312.4,432.8 312.4,433.2 312.3,433.6 312.3,434 312.2,434.4 312.1,434.7 312.1,435.1 312,435.5 312,435.8 311.9,436.2 311.7,436.9 311.6,437.6 311.4,438.3 311.3,438.9 311.1,439.6 310.9,440.2 311.9,440.1 312.4,440.1 312.7,440.1 313.1,440.2 313.5,440.4 313.9,440.6 314.2,440.8 314.5,441 314.7,441.3 315,441.5 315.2,441.8 315.4,442.2 315.6,442.5 315.7,442.9 315.8,443.3 315.9,443.7 315.9,444.1 315.8,444.6 315.7,445.2 315.6,445.7 315.3,446.3 315.1,446.7 314.7,447.2 314.4,447.6 314,447.9 313.6,448.2 313.2,448.5 312.7,448.7 312.2,448.9 311.7,449.1 311.2,449.2 310.7,449.2 310.3,449.2 306.1,449.2 305.6,449.2 305.1,449.1 304.6,448.9 304.2,448.7 303.8,448.4 303.4,448.2 303.1,447.9 302.7,447.6 302.4,447.2 302.2,446.9 302,446.7 301.7,446.9 301.3,447.2 300.9,447.5 300.6,447.7 300.2,447.9 299.8,448.1 299.4,448.3 299,448.5 298.6,448.7 298.2,448.9 297.8,449 297.4,449.1 296.9,449.3 296.5,449.4 296.1,449.5 295.6,449.6 295.1,449.6 294.7,449.7 294.2,449.8 293.8,449.8 293.3,449.8 292.8,449.8 292.3,449.8 291.9,449.8 291.6,449.8 291.2,449.8 290.9,449.8 290.5,449.8 290.2,449.8 289.8,449.7 289.5,449.7 289.2,449.7 288.9,449.6 288.6,449.6 288.2,449.5 287.9,449.5 287.6,449.4 287.3,449.3 287,449.3 286.5,449.1 285.9,448.9 285.4,448.6 284.8,448.3 284.2,447.8 283.7,447.1 283.3,446.2 283.2,445.3 283.3,444.6 283.4,443.9 283.7,443.2 284,442.6 284.4,442.1 284.8,441.6 285.3,441.2 285.8,440.8 286,440.7 286.3,440.5 286.6,440.4 286.9,440.2 287.2,440.1 287.5,440 287.8,439.9 288.1,439.8 288.4,439.7 288.7,439.6 289,439.6 289.3,439.5 289.6,439.5 289.9,439.5 290.3,439.5 290.6,439.5 290.9,439.5 291.3,439.5 291.7,439.5 292,439.6 292.5,439.6 292.9,439.7 293.4,439.7 293.9,439.8 294.3,439.9 294.7,439.9 295.1,440 295.5,440 295.8,440 296,440.1 296.2,440.1 296.4,440.1 297.3,440.1 297.4,439.9 297.6,439.6 297.8,439.2 298,438.9 298.2,438.5 298.4,438.2 298.6,437.8 298.7,437.4 298.9,437 299,436.6 299.2,436.2 299.3,435.8 299.5,435.4 299.6,434.9 299.7,434.5 299.8,434 300,433.6 300.1,433.2 300.1,432.7 300.2,432.2 300.3,431.8 300.4,431.3 300.4,430.8 300.5,430.3 300.5,429.9 300.5,429.4 300.5,428.9 300.6,428.4 300.6,427.9 300.6,427.4 300.5,427 300.5,426.6 300.5,426.1 300.5,425.7 300.4,425.3 300.4,424.9 300.3,424.5 300.2,424.1 300.2,423.7 300.1,423.4 300,423 299.9,422.7 299.8,422.3 299.7,422 299.5,421.7 299.4,421.3 299.3,421 299.1,420.7 299,420.5 298.9,420.2 298.7,420 298.6,419.7 298.4,419.5 298.3,419.3 298.1,419.1 298,418.9 297.8,418.8 297.6,418.6 297.5,418.5 297.3,418.3 297.2,418.2 296.6,417.9 296,417.5 295.4,417.2 294.9,416.9 294.4,416.6 293.9,416.3 293.5,416 293.1,415.8 292.7,415.6 292.7,415.5 292.5,415.6 292.1,415.7 291.7,415.8 291.4,415.9 291,416 290.6,416.1 290.2,416.2 289.8,416.2 289.5,416.2 289.1,416.3 288.7,416.3 288.3,416.3 287.9,416.3 287.5,416.3 287.1,416.3 286.7,416.2 286.3,416.2 285.9,416.2 285.6,416.1 285.2,416 284.8,416 284.4,415.9 284,415.8 283.6,415.7 283.2,415.6 282.9,415.5 282.5,415.4 282.1,415.3 281.7,415.1 281.3,415 280.9,414.8 280.6,414.7 280.2,414.5 279.8,414.3 279.5,414.2 279.1,414 278.7,413.8 278.4,413.6 278,413.4 277.7,413.1 277.3,412.9 276.9,412.7 276.6,412.4 276.3,412.2 276.1,412 275.8,411.9 275.6,411.7 275.4,411.6 275.2,411.5 275,411.3 274.8,411.2 274.6,411.1 274.4,411 274.2,410.9 274,410.8 273.8,410.7 273.5,410.6 273.3,410.5 273.1,410.4 272.9,410.3 272.7,410.2 272.5,410.2 272.4,410.1 272.2,410 272,410 271.8,409.9 271.7,409.9 271.5,409.8 271.3,409.8 271.2,409.8 271,409.8 270.9,409.7 270.7,409.7 270.6,409.7 270.5,409.7 270.4,409.7 270.2,409.7 270.1,409.7 270,409.7 269.9,409.8 269.8,409.8 269.7,409.8 269.5,409.8 269.4,409.9 269.3,409.9 269.2,410 269.1,410 269,410.1 268.9,410.1 268.7,410.2 268.6,410.3 265.8,412.3 264.3,409.2 264.3,409 264.2,408.9 264.1,408.7 264.1,408.6 264,408.4 264,408.3 263.9,408.1 263.8,407.9 263.8,407.7 263.7,407.5 263.7,407.3 263.6,407.1 263.6,406.8 263.6,406.6 263.6,406.3 263.6,405.9 263.6,405.5 263.7,405 263.7,404.6 263.8,404.2 263.9,403.8 264.1,403.4 264.2,403 264.4,402.6 264.6,402.2 264.8,401.8 265,401.4 265.2,401 265.5,400.7 265.7,400.3 266,399.9 266.3,399.6 266.6,399.2 266.9,398.9 267.2,398.5 267.5,398.2 267.9,397.9 268.1,397.7 267.8,397.6 267.4,397.2 267,396.9 266.6,396.6 266.2,396.2 265.8,395.9 265.5,395.5 265.1,395.1 264.7,394.7 264.4,394.3 264,393.9 263.7,393.5 263.3,393.1 263,392.6 262.7,392.2 262.4,391.7 262.1,391.2 261.8,390.7 261.5,390.2 261.2,389.7 260.9,389.2 260.6,388.7 260.3,388.1 260.1,387.6 259.8,387 259.6,386.4 259.3,385.9 259.1,385.3 258.9,384.7 258.7,384.2 258.4,383.6 258.2,383 258.1,382.4 257.9,381.8 257.7,381.2 257.5,380.6 257.4,379.9 257.2,379.3 257.1,378.7 257,378.1 256.9,377.4 256.7,376.8 256.6,376.1 256.5,375.5 256.5,374.8 256.4,374.2 256.3,373.5 256.2,372.8 256.2,372.1 256.2,371.5 256.1,370.8 256.1,370.1 256.1,369.4 256.1,368.7 256,368 256,367.6 256,367.3 256,366.9 256,366.5 256,366.2 256,365.8 256,365.4 255.9,365.1 255.9,364.7 255.9,364.4 255.9,364 255.8,363.7 255.8,363.3 255.7,363 255.7,362.6 255.6,362.3 255.6,361.9 255.5,361.6 255.5,361.3 255.4,360.9 255.3,360.6 255.3,360.3 255.2,359.9 255.1,359.6 255,359.3 255,358.9 254.9,358.6 254.8,358.3 254.7,358 254.6,357.6 254.5,357.3 254.4,357 254.2,356.4 254,355.8 253.7,355.2 253.5,354.6 253.2,354 253,353.4 252.7,352.8 252.4,352.3 252.1,351.7 251.8,351.2 251.5,350.7 251.2,350.2 250.8,349.7 250.5,349.2 250.1,348.7 248,346 250.4,344.1 250.7,343.8 251,343.6 251.4,343.4 251.7,343.2 252.1,343.1 252.5,343 252.8,342.8 253.2,342.7 253.6,342.7 254,342.6 254.3,342.5 254.7,342.5 255.1,342.5 255.5,342.4 255.9,342.4 256.3,342.4 256.8,342.5 257.2,342.5 257.6,342.5 258,342.5 258.5,342.6 258.9,342.6 259.3,342.7 259.7,342.8 260.2,342.8 260.6,342.9 261,343 261.4,343.1 261.9,343.2 262.3,343.3 262.7,343.4 263.1,343.5 263.5,343.7 264,343.8 264.4,344 264.8,344.1 265.2,344.3 265.6,344.4 266,344.6 266.4,344.8 266.8,345 267.2,345.2 267.6,345.4 268,345.6 268.4,345.8 268.8,346.1 269.2,346.3 269.6,346.5 270,346.8 270.4,347 270.8,347.3 271.2,347.6 271.6,347.8 272,348.1 272.3,348.4 272.7,348.7 273.1,349 273.4,349.3 273.8,349.6 274,349.8 274,349.8 273.8,349.5 273.7,349.2 273.5,348.9 273.3,348.6 273.1,348.3 272.9,348 272.6,347.6 272.4,347.3 272.2,347 272.2,347 271.9,346.7 269.5,343.7 "
   id="polygon3083"
   style="fill:#ffffff;fill-rule:evenodd"
   transform="translate(-46.271593,40.631614)" />
	<path
   clip-rule="evenodd"
   d="m 246.02841,487.73161 c -1.9,0 -3.4,-0.2 -4.6,-0.5 -1.2,-0.3 -1.8,-0.8 -1.8,-1.3 0,-0.8 0.4,-1.5 1.3,-2.1 0.9,-0.6 2,-0.9 3.3,-0.9 0.6,0 1.6,0.1 2.9,0.3 1.3,0.2 2.3,0.3 2.9,0.3 h 2.3 c 1.5,-1.8 2.6,-4.1 3.4,-6.6 0.8,-2.6 1.2,-5.4 1.2,-8.3 0,-2.7 -0.4,-5.1 -1.2,-7.2 -0.8,-2.1 -1.9,-3.7 -3.4,-4.7 -3.6,-2.2 -5.6,-3.4 -5.8,-3.6 -0.7,0.4 -1.4,0.7 -2.2,0.9 -0.8,0.2 -1.6,0.3 -2.4,0.3 -1.8,0 -3.5,-0.3 -5.3,-0.9 -1.8,-0.6 -3.5,-1.5 -5.1,-2.7 -1.3,-1 -2.6,-1.7 -3.9,-2.2 -1.3,-0.5 -2.5,-0.8 -3.6,-0.8 -0.6,0 -1.2,0.1 -1.8,0.3 -0.6,0.2 -1.1,0.5 -1.7,0.9 -0.2,-0.3 -0.3,-0.6 -0.4,-1 -0.1,-0.3 -0.2,-0.6 -0.2,-0.8 0,-1.5 0.6,-3.1 1.9,-4.7 1.2,-1.6 2.9,-3 5.1,-4.3 -4.3,-1.6 -7.8,-5.1 -10.5,-10.5 -2.7,-5.4 -4,-11.7 -4,-18.9 0,-4.2 -0.6,-8.2 -1.8,-11.9 -1.2,-3.7 -2.9,-6.9 -5.1,-9.7 0.5,-0.4 1,-0.7 1.7,-0.9 0.7,-0.2 1.5,-0.3 2.3,-0.3 4.1,0 8.1,1.2 12,3.5 3.9,2.3 7.2,5.5 10,9.7 0.4,-1.5 0.6,-2.7 0.6,-3.6 0,-1.4 -0.4,-3 -1.2,-4.8 -0.8,-1.8 -1.9,-3.6 -3.4,-5.4 0.3,-0.2 0.7,-0.3 1,-0.4 0.4,-0.1 0.8,-0.2 1.3,-0.2 3.9,0 7.8,1.3 11.5,3.8 3.7,2.6 6.8,6.1 9.3,10.5 2,-4.5 5.3,-10.1 9.8,-16.8 2.5,3 5.2,7.8 8.1,14.4 2.3,-3.4 5,-6.2 8,-8.4 3,-2.2 6.1,-3.6 9.4,-4.1 0.6,0 1.2,0.1 1.8,0.2 0.6,0.1 1.1,0.3 1.7,0.4 -0.9,1.7 -1.6,3.3 -2.1,5 -0.5,1.6 -0.8,3.2 -0.8,4.6 0,2.1 0.2,3.9 0.6,5.4 2.4,-4.2 5.5,-7.6 9.3,-10.1 3.8,-2.5 7.8,-3.7 12.1,-3.7 0.8,0 1.6,0.1 2.3,0.3 0.7,0.2 1.3,0.5 1.7,0.9 -2,2.1 -3.6,4.4 -4.7,6.9 -1.1,2.5 -1.7,5 -1.7,7.5 0,1.4 0.1,3.5 0.3,6.3 0.2,2.8 0.3,4.9 0.3,6.3 0,4.6 -1,8.9 -2.9,13.1 -1.9,4.2 -4.6,7.8 -8.1,10.8 1.6,1.2 2.9,2.5 3.8,4 0.9,1.5 1.4,2.9 1.4,4.4 0,0.5 -0.2,1.3 -0.6,2.4 -1.6,-1.2 -2.8,-1.8 -3.5,-1.8 -1.1,0 -2.3,0.3 -3.6,0.9 -1.3,0.6 -2.6,1.5 -3.9,2.7 -1.5,1.4 -3.2,2.4 -5,3.1 -1.8,0.7 -3.6,1.1 -5.4,1.1 -1.5,0 -2.7,-0.1 -3.8,-0.3 -1,-0.2 -1.9,-0.5 -2.6,-0.9 -2.5,0.5 -4.6,1.6 -6.2,3.4 -1.6,1.8 -2.4,3.9 -2.4,6.2 0,5.2 -0.3,9.6 -1,13.2 -0.7,3.6 -1.7,6.2 -3,7.8 l 5.8,-0.6 c 0.3,0 0.6,0.1 0.8,0.4 0.2,0.2 0.3,0.5 0.3,0.8 0,0.6 -0.3,1.2 -0.9,1.7 -0.6,0.5 -1.3,0.7 -2,0.7 h -4 c -0.5,0 -1,-0.3 -1.5,-0.8 -0.5,-0.6 -1,-1.3 -1.4,-2.2 1.3,-1.4 2.3,-3.8 3,-7.2 0.7,-3.4 1,-7.6 1,-12.6 0,-0.3 -0.2,-0.6 -0.5,-0.8 -0.3,-0.2 -0.8,-0.4 -1.2,-0.4 v 4.2 c 0,7 -1.1,12.2 -3.2,15.5 -2.2,3.1 -5.5,4.8 -10.1,4.8 l 0,0 z"
   id="path3085"
   inkscape:connector-curvature="0"
   style="fill-rule:evenodd" />
	<path
   clip-rule="evenodd"
   d="m 286.52841,438.53161 c 4.2,0 8,-2.5 11.5,-7.5 3.5,-5 5.3,-10.5 5.3,-16.4 0,-1.4 -0.1,-3.5 -0.3,-6.3 -0.2,-2.8 -0.3,-4.9 -0.3,-6.3 0,-2.5 0.4,-4.9 1.3,-7.1 0.9,-2.3 2.2,-4.3 3.9,-6 -3.9,0 -7.7,1.4 -11.2,4.1 -3.5,2.7 -6.4,6.3 -8.4,10.9 1.5,6 2.3,11.2 2.3,15.6 0,3.8 -0.7,7.4 -2,10.6 -1.3,3.2 -3.2,5.9 -5.6,8 0.5,0.2 1.1,0.3 1.7,0.4 0.6,0 1.2,0 1.8,0 l 0,0 z"
   id="path3087"
   inkscape:connector-curvature="0"
   style="fill:#f58220;fill-rule:evenodd" />
	<path
   clip-rule="evenodd"
   d="m 271.52841,440.33161 c 4.5,-0.4 8.4,-2.4 11.5,-6.1 3.1,-3.7 4.7,-8 4.7,-13.1 0,-5.9 -0.6,-10.5 -1.7,-13.8 -1.5,-6 -2.3,-10 -2.3,-12 0,-1.4 0.2,-2.6 0.5,-3.8 0.3,-1.2 0.7,-2.3 1.3,-3.4 -2.9,0.2 -5.6,1.4 -8.3,3.4 -2.7,2 -4.9,4.7 -6.8,8 2.2,4.1 4,8.3 5.1,12.6 1.2,4.4 1.8,8.7 1.8,13.1 0,2.1 -0.5,4.4 -1.5,6.9 -1.1,2.8 -2.5,5.4 -4.3,8.2 l 0,0 z"
   id="path3089"
   inkscape:connector-curvature="0"
   style="fill:#f58220;fill-rule:evenodd" />
	<path
   clip-rule="evenodd"
   d="m 233.32841,436.13161 c 1.2,0 2.4,-0.2 3.5,-0.6 -2.4,-2.5 -4.2,-5.7 -5.5,-9.8 -1.3,-4.1 -2,-8.6 -2,-13.5 0,-2.2 0.4,-5.6 1.2,-10.2 -2.7,-3.9 -5.8,-7 -9.4,-9.2 -3.5,-2.2 -7.2,-3.4 -10.9,-3.4 1.8,2.3 3.3,5.5 4.3,9.5 1,4 1.5,8.6 1.5,13.9 0,5.7 1.8,11.1 5.4,16 3.6,4.9 7.6,7.3 11.9,7.3 l 0,0 z"
   id="path3091"
   inkscape:connector-curvature="0"
   style="fill:#f58220;fill-rule:evenodd" />
	<path
   clip-rule="evenodd"
   d="m 248.32841,439.13161 c -1.7,-2.1 -3,-4.6 -3.9,-7.4 -0.9,-2.9 -1.3,-6 -1.3,-9.3 0,-2.7 0.4,-5.7 1.3,-9 0.9,-3.3 2.2,-6.9 3.9,-10.7 -2.4,-4.2 -5,-7.7 -7.8,-10.3 -2.8,-2.6 -5.6,-4.2 -8.4,-4.7 0.9,1 1.6,2.2 2.1,3.8 0.5,1.6 0.8,3.3 0.8,5.2 0,1.8 -0.4,4.2 -1.2,7.2 -0.8,2.2 -1.2,5.5 -1.2,10.2 0,6.1 1.4,11.6 4.3,16.2 3,4.6 6.8,7.6 11.4,8.8 l 0,0 z"
   id="path3093"
   inkscape:connector-curvature="0"
   style="fill:#f58220;fill-rule:evenodd" />
	<path
   clip-rule="evenodd"
   d="m 260.52841,441.53161 c 3.7,0 6.8,-1.6 9.4,-4.9 2.6,-3.3 3.9,-7.2 3.9,-11.9 0,-5.5 -1.1,-11.4 -3.4,-17.6 -2.3,-6.2 -5.6,-12.5 -9.9,-18.9 -4.7,6.9 -8.3,13.5 -10.8,19.6 -2.5,6.1 -3.7,11.6 -3.7,16.3 0,4.8 1.4,8.9 4.2,12.3 2.9,3.4 6.3,5.1 10.3,5.1 l 0,0 z"
   id="path3095"
   inkscape:connector-curvature="0"
   style="fill:#f58220;fill-rule:evenodd" />
	<path
   clip-rule="evenodd"
   d="m 279.52841,451.73161 c 1.3,0 2.7,-0.3 4,-0.9 1.4,-0.6 2.7,-1.5 4,-2.7 1.6,-1.4 3.2,-2.4 4.9,-3 1.6,-0.6 3.1,-0.8 4.4,-0.6 -0.5,-1.3 -1.1,-2.3 -2,-3.1 -0.8,-0.8 -1.7,-1.1 -2.7,-1.1 -4.3,1.2 -7,1.8 -8.1,1.8 -2.4,0 -4.1,-0.2 -5.2,-0.6 -0.8,0 -1.7,0.1 -2.4,0.3 -0.8,0.2 -1.5,0.5 -2.2,0.9 0.4,0.5 0.7,1 0.9,1.6 0.2,0.6 0.3,1.3 0.3,2 0,1 -0.1,2 -0.3,2.8 -0.2,0.8 -0.5,1.5 -0.9,2 0.5,0.2 1.2,0.3 2.1,0.4 1,0.2 2,0.2 3.2,0.2 l 0,0 z"
   id="path3097"
   inkscape:connector-curvature="0"
   style="fill:#00a651;fill-rule:evenodd" />
	<path
   clip-rule="evenodd"
   d="m 242.02841,451.13161 c 1.2,0 2.4,-0.2 3.5,-0.6 -0.4,-1.1 -0.6,-2.7 -0.6,-4.8 0,-0.4 0.2,-1 0.6,-1.7 0.4,-0.7 1,-1.6 1.7,-2.5 -2.4,-0.5 -4.9,-1.5 -7.5,-3 -1.1,0.4 -2.1,0.7 -3.2,0.9 -1,0.2 -2.1,0.3 -3.2,0.3 0.2,0 -0.7,-0.2 -2.9,-0.6 -1.8,0.9 -3.2,1.8 -4.3,2.9 -1.1,1 -1.8,2.1 -2.1,3.1 1.2,-0.5 2.7,-0.5 4.3,0.1 1.7,0.5 3.3,1.5 4.9,2.9 1.3,1 2.7,1.7 4.2,2.2 1.6,0.6 3.1,0.8 4.6,0.8 l 0,0 z"
   id="path3099"
   inkscape:connector-curvature="0"
   style="fill:#00a651;fill-rule:evenodd" />
	<path
   clip-rule="evenodd"
   d="m 260.52841,459.53161 c 0.5,0 1,-0.3 1.5,-0.8 0.5,-0.6 1,-1.3 1.4,-2.2 0.2,-0.7 0.8,-1.5 1.6,-2.2 0.8,-0.8 1.8,-1.4 3.1,-2 1.4,-0.4 2.5,-1.1 3.4,-2.1 0.8,-1 1.3,-2.1 1.3,-3.3 0,-1 -0.2,-1.8 -0.6,-2.6 -0.4,-0.8 -1,-1.3 -1.7,-1.6 -3.2,1.2 -6.2,1.8 -9.3,1.8 -3.8,0 -7.2,-0.6 -10.4,-1.8 -0.7,0.3 -1.3,0.9 -1.7,1.8 -0.4,0.9 -0.6,1.9 -0.6,3 0,0.9 0.3,1.7 0.8,2.6 0.5,0.8 1.2,1.6 2.1,2.2 3.1,1.8 5,3.4 5.8,4.8 0.4,0.7 0.9,1.3 1.5,1.7 0.4,0.5 1.1,0.7 1.8,0.7 l 0,0 z"
   id="path3101"
   inkscape:connector-curvature="0"
   style="fill:#00a651;fill-rule:evenodd" />
	<path
   clip-rule="evenodd"
   d="m 247.22841,485.93161 c 0.5,0 0.9,-0.1 1.2,-0.4 0.3,-0.3 0.5,-0.6 0.5,-1 -0.2,0.2 -0.6,0.3 -1,0.4 -0.4,0.1 -0.9,0.1 -1.3,0.1 h -3.5 c -0.3,0 -0.5,0.2 -0.5,0.5 0,0.3 0.2,0.5 0.5,0.5 h 4.1 l 0,-0.1 z"
   id="path3103"
   inkscape:connector-curvature="0"
   style="fill:#ffffff;fill-rule:evenodd" />
	<path
   clip-rule="evenodd"
   d="m 255.82841,489.13161 0,0 0.1,-0.3 0.1,-0.3 0.1,-0.3 0.2,-0.3 0.2,-0.2 0.2,-0.2 0.2,-0.2 0.3,-0.2 0.3,-0.2 0.3,-0.1 0.3,-0.1 0.3,-0.1 0.3,-0.1 0.3,0 0.3,0 h 5.2 l 0.2,0 0.2,0 0.2,0 0.2,0.1 0.2,0.1 0.2,0.1 0.2,0.1 0.2,0.1 0.2,0.2 0.2,0.2 0.2,0.2 0.2,0.2 0.1,0.2 0.1,0.3 0.1,0.3 0,0.3 -0.1,0.5 -0.2,0.5 -0.2,0.4 -0.1,0.2 0,0 0.4,0 0.4,0 0.4,0 0.9,0 -0.2,-0.1 -0.5,-0.5 -0.2,-0.7 0,-0.5 0.1,-0.3 0.1,-0.3 0.1,-0.3 0.2,-0.3 0.2,-0.2 0.2,-0.2 0.1,-0.1 0,0 -0.1,-0.4 -0.2,-0.1 -0.2,-0.2 -0.2,-0.2 -0.2,-0.2 -0.2,-0.3 -0.1,-0.3 -0.1,-0.3 0,-0.4 0,-0.5 0.1,-0.4 0.2,-0.4 0.3,-0.3 0.3,-0.3 0.3,-0.2 0.4,-0.2 0.4,-0.2 0.2,-0.1 0.2,-0.1 0.2,-0.1 0.2,-0.1 0.2,0 0.2,0 0.2,0 0.2,0 0.2,0 0.2,0 0.2,0 0.3,0 0.3,0 0.3,0 0.3,0 0.3,0 0.4,0 0.4,0 0.4,0 0.4,0.1 0.4,0.1 0.4,0.1 0.3,0.1 0.3,0.2 0.3,0.2 0.3,0.2 0.3,0.3 0.2,0.3 0.2,0.3 0.1,0.4 0.1,0.4 0,0.4 0,0.3 0,0.3 -0.1,0.3 -0.1,0.3 -0.1,0.2 0.2,0 0.2,0.1 0.2,0.1 0.2,0.1 0.2,0.1 0.2,0.2 0.2,0.2 0.2,0.2 0.2,0.2 0.1,0.3 0.1,0.3 0.1,0.3 0,0.3 0,0.2 0,0.2 -0.1,0.2 -0.1,0.2 -0.1,0.2 -0.1,0.2 -0.1,0.2 -0.2,0.2 -0.2,0.2 -0.2,0.1 -0.2,0.1 -0.2,0.1 -0.2,0.1 -0.1,-0.2 -0.2,0 -0.2,0 h -1.7 l 0.2,0.1 0.2,0.2 0.2,0.2 0.2,0.3 0.1,0.3 0.1,0.3 0,0.4 -0.1,0.5 -0.2,0.5 -0.3,0.4 -0.3,0.3 -0.4,0.2 -0.4,0.2 -0.4,0.2 -0.5,0.1 -0.3,0.1 -0.3,0.1 -0.3,0.1 -0.3,0.1 -0.3,0 -0.3,0 -0.3,0 -0.3,0 -0.3,0 -0.3,0 -0.3,0 -0.3,0 -0.3,0 -0.4,0 -0.4,0 -0.4,0 -0.3,0 -0.3,0 -0.3,0 -0.3,0 -0.2,0 -0.2,0 -0.2,0 -0.2,0 -0.2,0 -0.2,0 -0.2,0 -0.2,0 -0.2,0 -0.2,0 -0.2,0 -0.2,0 -0.4,-0.1 -0.3,-0.1 -0.3,-0.1 -0.3,-0.2 -0.3,-0.3 0,0 -0.2,0.1 -0.4,0.2 -0.4,0.2 -0.4,0.1 -0.4,0.1 -0.2,0.1 -0.2,0 -0.2,0 -0.2,0 -0.2,0 -0.2,0 -0.2,0 -0.2,0 -0.3,0 -0.3,0 -0.3,0 -0.3,0 -0.3,0 -0.3,0 -0.3,0 -0.3,0 -0.4,0 -0.4,0 -0.4,0 -0.4,0 -0.4,0 -0.3,-0.1 -0.3,-0.1 -0.3,-0.1 -0.3,-0.1 -0.3,-0.1 -0.3,-0.2 -0.3,-0.2 -0.2,-0.3 -0.2,-0.3 -0.1,-0.4 0,-0.4 0,-0.3 0.1,-0.3 0.1,-0.3 0,-0.1 -0.2,0.1 -0.3,0.1 -0.3,0.1 -0.3,0.1 -0.3,0 -0.3,0 -0.2,0 -0.2,0 -0.2,0 -0.2,0 -0.2,0 0.1,0.1 0.2,0.3 0.1,0.3 0,0.4 0,0.5 -0.1,0.4 -0.2,0.4 -0.3,0.3 -0.3,0.3 -0.3,0.2 -0.4,0.2 -0.4,0.2 -0.2,0.1 -0.2,0.1 -0.2,0.1 -0.2,0.1 -0.2,0 -0.2,0 -0.2,0 -0.2,0 -0.2,0 -0.2,0 -0.2,0 -0.3,0 -0.3,0 -0.3,0 -0.3,0 -0.3,0 -0.3,0 -0.3,0 -0.3,0 -0.3,0 -0.3,0 -0.2,0 -0.2,0 -0.2,0 -0.2,0 -0.2,0 -0.2,0 -0.2,0 -0.2,0 -0.2,-0.1 -0.2,-0.1 -0.2,-0.1 -0.4,-0.1 -0.4,-0.2 -0.3,-0.2 -0.3,-0.2 -0.3,-0.3 -0.2,-0.4 -0.2,-0.4 -0.1,-0.5 0,-0.4 0.1,-0.4 0.2,-0.3 0.2,-0.3 0.2,-0.2 0.2,-0.2 0.3,-0.1 0.3,-0.1 0.3,-0.1 -0.1,0 -0.2,-0.1 -0.2,-0.1 -0.1,-0.1 -0.1,-0.1 -0.1,-0.1 -0.1,-0.1 -0.1,-0.1 -0.1,-0.1 -0.1,-0.2 -0.1,-0.2 0,-0.2 0,-0.2 0,-0.2 0,-0.4 0.1,-0.4 0.2,-0.3 0.2,-0.3 0.2,-0.2 0.2,-0.2 0.3,-0.1 0.3,-0.1 0.3,-0.1 0.3,-0.1 0.3,-0.1 0.3,-0.1 0.3,0 0.3,0 0.3,0 0.3,0 0.2,0 0.2,0 0.2,0 0.2,0 0.2,0 0.2,0.1 0.2,0.1 0.2,0.1 0.2,0.1 0.2,0.1 0.2,0 0.2,0 0.1,0 0.1,0 0.1,0 0,0 0.2,0 0.2,0 0.3,0 0.3,-0.1 0.3,-0.1 0.4,-0.1 0.4,-0.1 0.4,-0.1 0.5,-0.1 0.5,-0.1 0.4,-0.1 0.4,-0.1 0.4,-0.1 0.4,-0.1 0.4,0 0.3,0 0.2,0 0.2,0 0.2,0 0.2,0.1 0.2,0.1 0.2,0.1 0.2,0.1 0.2,0.1 0.2,0.1 0.2,0.2 0.2,0.2 0.2,0.2 0.1,0.2 0.1,0.3 0.7,0.6 0,0 z m -0.3,1.7 0.2,-0.1 0.2,0 0.2,0 0.1,0 -0.2,-0.3 -0.2,-0.4 0,-0.2 0,0.1 -0.1,0.4 -0.1,0.3 -0.1,0.2 0,0 z"
   id="path3105"
   inkscape:connector-curvature="0"
   style="fill:#ffffff;fill-rule:evenodd" />
	<path
   clip-rule="evenodd"
   d="m 247.82841,491.63161 c -0.6,0 -1.6,-0.2 -2.9,-0.5 -1.3,-0.3 -2.3,-0.5 -2.9,-0.5 -0.2,0 -0.3,-0.1 -0.4,-0.2 -0.1,-0.1 -0.2,-0.3 -0.2,-0.4 0,-0.3 0.3,-0.6 0.9,-0.8 0.6,-0.2 1.3,-0.4 2,-0.4 0.3,0 0.8,0.1 1.4,0.3 0.7,0.2 1.1,0.3 1.4,0.3 0.7,0 1.7,-0.2 2.9,-0.6 1.2,-0.4 2.2,-0.6 2.9,-0.6 0.5,0 0.9,0.1 1.2,0.4 0.3,0.2 0.5,0.5 0.5,0.8 0,0.5 -0.3,0.9 -0.9,1.3 -0.6,0.4 -1.3,0.5 -2,0.5 -0.5,0 -1.1,0.1 -2,0.2 -0.8,0.1 -1.5,0.2 -1.9,0.2 l 0,0 z m -2.4,3.8 c -1.4,0 -2.5,-0.1 -3.4,-0.4 -0.8,-0.3 -1.3,-0.7 -1.3,-1.1 0,-0.3 0.3,-0.6 0.9,-0.8 0.6,-0.2 1.3,-0.4 2,-0.4 h 4 c 0.6,0 1.2,0.1 1.6,0.3 0.5,0.2 0.7,0.4 0.7,0.7 0,0.6 -0.4,1 -1.3,1.3 -0.7,0.3 -1.8,0.4 -3.2,0.4 l 0,0 z m 12.8,-1.2 c -1.1,0 -1.9,-0.1 -2.5,-0.3 -0.6,-0.2 -0.9,-0.5 -0.9,-0.9 0,-0.3 0.2,-0.6 0.5,-0.8 0.3,-0.2 0.8,-0.4 1.2,-0.4 0.3,0 0.8,-0.1 1.4,-0.3 0.7,-0.2 1.1,-0.3 1.4,-0.3 0.3,0 0.8,0.1 1.4,0.3 0.7,0.2 1.1,0.3 1.4,0.3 0.3,0 0.6,0.1 0.8,0.3 0.2,0.2 0.3,0.4 0.3,0.7 0,0.5 -0.5,0.8 -1.5,1.1 -0.8,0.2 -2.1,0.3 -3.5,0.3 l 0,0 z m 2.8,-3.6 c -1.2,0 -2.1,-0.1 -2.9,-0.4 -0.8,-0.2 -1.2,-0.5 -1.2,-0.8 0,-0.5 0.2,-0.9 0.7,-1.3 0.5,-0.4 1,-0.5 1.6,-0.5 h 5.2 c 0.5,0 0.9,0.1 1.2,0.4 0.3,0.2 0.5,0.5 0.5,0.8 0,0.6 -0.5,1 -1.4,1.3 -0.9,0.4 -2.1,0.5 -3.7,0.5 l 0,0 z m 8.1,3.6 c -1.4,0 -2.5,-0.1 -3.4,-0.3 -0.8,-0.2 -1.3,-0.5 -1.3,-0.9 0,-0.4 0.3,-0.8 1,-1.1 0.7,-0.3 1.5,-0.5 2.4,-0.5 l 5.2,-0.2 c 0.6,0 1.2,0.1 1.6,0.4 0.5,0.2 0.7,0.5 0.7,0.8 0,0.6 -0.6,1 -1.7,1.3 -1,0.4 -2.5,0.5 -4.5,0.5 l 0,0 z m 2.9,-4.8 c -1.9,0 -2.9,-0.2 -2.9,-0.6 0,-0.5 0.2,-0.9 0.7,-1.3 0.5,-0.4 1,-0.5 1.6,-0.5 h 5.2 c 0.5,0 0.9,0.1 1.2,0.4 0.3,0.2 0.5,0.5 0.5,0.8 0,0.3 -0.1,0.6 -0.3,0.8 -0.2,0.2 -0.5,0.4 -0.8,0.4 h -5.2 l 0,0 z m -1.1,-3.5 c -0.6,0 -1.2,-0.1 -1.6,-0.4 -0.5,-0.2 -0.7,-0.5 -0.7,-0.8 0,-0.6 0.4,-1 1.3,-1.3 0.8,-0.3 2,-0.5 3.4,-0.5 1.1,0 1.9,0.2 2.5,0.5 0.6,0.3 0.9,0.8 0.9,1.3 0,0.4 -0.2,0.7 -0.5,0.9 -0.3,0.2 -0.7,0.3 -1.3,0.3 h -4 l 0,0 z"
   id="path3107"
   inkscape:connector-curvature="0"
   style="fill-rule:evenodd" />
</g>
</svg>